# xmcd
#
# Track frame offsets:
#  150
#  14125
#  26763
#  38713
#  48523
#  60898
#  72500
#  85685
#
# Disc length: 1288 seconds
#
# Revision: 1
# Processed by: cddbd v1.4PL0 Copyright (c) Steve Scherf et al.
# Submitted via: AltoMP3_Maker 3.0
#
DISCID=64050608
DTITLE=George Jones and Johnny Paycheck - I'm The Only Hell My Mama Ever Raised
DYEAR=1900
DGENRE=Country
TTITLE0=I'm The Only Hell Mama Ever Raised
TTITLE1=Brothers of a Bottle
TTITLE2=Take This Job and Shove It
TTITLE3=Feelin Single, Seein Double
TTITLE4=(Don't Take Her) She's All I Got
TTITLE5=Fightin' Side of Me
TTITLE6=Heaven's Almost as Big as Texas
TTITLE7=Swinging Doors
EXTD=
EXTT0=
EXTT1=
EXTT2=
EXTT3=
EXTT4=
EXTT5=
EXTT6=
EXTT7=
PLAYORDER=
